<svg xmlns="http://www.w3.org/2000/svg" viewBox="0 0 1400 468.76"><title>iconAsset 1</title><g id="Layer_2" data-name="Layer 2"><g id="Layer_1-2" data-name="Layer 1"><path d="M1391.15,381.39v-70h-10.9v-.82h-10.88v.82h-2.46v49.93h-6.75V345.18h-7.69V331.31h-6.31V294h-9.45v-3.37H1323.9V294h-4.2v43.47h-4.15v-1.33h-1v-2.91h1v-6.63h-1v-2.91h1v-6.63h-1v-2.91h1v-6.63h-1v-2.91h1V298h-1v-2.9h1v-6.63h-1v-2.91h1v-6.64h-1V276h1v-6.64h-1v-2.91h1v-6.63h-1v-2.9h1v-6.64h-1v-2.91h1v-6.63h-1v-3.47h-18.95v-5.69h-20.21v5.69H1265V233.8h-11.69V216.1h-4.1v24.65h-1v6.63h1v2.91h-1v6.64h1v2.9h-1v6.63h1v2.91h-1V276h1v2.9h-1v6.64h1v2.91h-1v6.63h1V298h-1v6.64h1v2.91h-1v6.63h1v2.91h-1v1.67h-4.74v8.84h-3.87v2.33h-9.44V312.05h2.44v-5.7h-14.16V134.71h-50.14V103.77c3.08-2.2,6.24,3.36,9.36,4.9v-6.92c-3.14-1.54-5.1-5.82-9.36-4.79V93.53h-1.17v41.18h-50.12v86.4h-24.78V337.68h-12.8v7.55h-15v-4.32H1068V330.49h-3.52v-4.4H1068V315.67h-3.52v-4.39H1068V300.86h-3.52v-4.4H1068V286h-3.52v-4.4H1068V271.22h-3.52v-4.4H1068V256.4h-11.86V177.93h-78v49.46H964.36V331.07H952.07v25.41h-8.13v24.91h-5.69V227.76l-13.49-19.24h-.14v-.86h-.81V199h-.73v8.62h-.8v.86H910v-.86h-.81V199h-.73v8.62h-.82v.86h-12.3v-.86h-.8V199h-.73v8.62H893v.86H880.66v-.86h-.81V199h-.73v8.62h-.82v.86h0l-13.49,19.24V381.39h-2.43V361.7h-1.07V346.88h.87v-1.07h-.87v-1.94l-11.37-4.5H832.28v-6.23H831.2V317.68h-.85V305.22h-2.58v-1.5l-16.54-16.11h-4.94l-16.54,16.11v1.5h-2.58v12.46h-.85v15.46h-1.08v6.23H767.63l-11.38,4.5v1.94h-.85v1.07h.85V361.7h-1.07v19.69h-2.75V43.77h-5.36V30.92h-4.48V20.84h-7.17v-6.5L722,0H693.65L680.2,14.34v6.5H673V30.92h-4.48V43.77h-5.36V381.39h-2v-6.83h-5.08v-9.18h-7V363.2l-5.8-35v-2.32H646v-2.31h-.61a.4.4,0,0,0,.13-.07c.36-.37.3-.46.18-.79s-.1-.13.32-.61-.32-1.25-.32-1.25l.3-.35,0-.43s-.41.06-1.61.38-.87,1.76-1.09,1.86l-6.8-16.06H637V305h-1.52v-2.74H634v-8l6.06-10-6.35,3.59-3.18-67.06h0a.91.91,0,0,0,.53-.77.65.65,0,0,0-.05-.2.83.83,0,0,0,0-1.54v-1.42h.52l-2.92-4.53v-1.48h.63v-.63h-2v0a2.15,2.15,0,0,0-.88-1.73,1.91,1.91,0,0,1,.49-.83c.44-.36-.32-2-.16-3.51s-.35-2.28-.13-2.92a4,4,0,0,1,.46-1s1.64-1.14,1.64-2.28a5.59,5.59,0,0,0-.38-2v-1l.51-.11a.64.64,0,0,0-.73-.5.79.79,0,0,0-.77.48l.64.11,0,1c-.13,0-.23.11-.11.34a2.08,2.08,0,0,1-.3,2.26,9.67,9.67,0,0,1-1.25,1.16,1.42,1.42,0,0,0-.72-.27c-.36,0-.47-.14-.47-.14a1.77,1.77,0,0,0,.33-1.2,3.63,3.63,0,0,0-.16-1.25s-.31.47-.51.55-.5.15-.5.09l-.25-.66s-.25.05-.8.77-.56.92-.56.92,1.39-1,1.22-.39-.52.45-.24,1.14a3.9,3.9,0,0,0,.49,1,6.11,6.11,0,0,0-1.66.73c-.5.38-1,.66-1.4.48l-.15-.2.8-.56-.3-.42-.79.56L619.4,199l-.55.23.69,1a.54.54,0,0,0-.14.18c-.21.49.33.79.51.87l-.59.41.2.51.79-.57a2.08,2.08,0,0,0,.38.25l2.66,3.8a11.75,11.75,0,0,1,.53,2.44,3.58,3.58,0,0,0-.1.54,2.11,2.11,0,0,0-.63,1.52v0h-1.77v.63H622v1.48l-2.92,4.53h.5v1.43a.83.83,0,0,0,0,1.53.65.65,0,0,0-.05.2.91.91,0,0,0,.53.77h0l-3.17,66.82L611,284.25l5.65,9.29,0,.44v8.29h-1.48V305H613.6v1.2h.52l-6.8,16.06c-.2-.15,0-1.56-1.08-1.86s-1.66-.34-1.61-.38l0,.43.31.35s-.73.77-.32,1.25.44.28.32.61-.18.42.18.79a.32.32,0,0,0,.13.07h-.62v2.31h2.72v2.32l-5.8,35v2.18h-7v9.18h-5.09v6.83H586.9v-63.5h-3.62V198h-1.93v3.3H578.2V182.58H569v-5h-2.41L556.2,166.17v-1.79H535.63v1.79l-10.37,11.44h-2.41v5h-9.22v18.74h-3.15V198h-1.93V317.89h-3.62v9.51h-4.46V277.67H486.14V170.35h.51V168h1v-2.47h-1.53V158.8h.71v-2.36h1.37V154H487V143.67h1.25v-6.2H469.55v-8.6h-1v8.6h-1.4v-8.6h-1v8.6H451.58v-6h1.53v-5.36h-3.95v5.36h1.53v6H434.62v-4.63h1.16v-1.15h-1.16v-3.07h1.79v-1.15h-1.79v-1.92h1v-1.91h-1v-2.55h-1v2.55h-1.92v1.91h1.92v1.92h-.51v1.15h.51v3.07h-1v1.15h1v4.63H419.93v6.2h1.27V154h-1.27v2.46h1.38v2.36h.7v6.72h-1.53V168h1v2.36H422v102.5h-9v61H400.76v-2.41h-3.21v-5.08h3.21v-7.22h-3.21V314h3.21v-7.21h-3.21v-5.08h3.21v-7.21h-8.59V291.3h-8V250.67h-48V227.93h-7.3v-5.68h14.2v-2.43H321.14V182.47h-2v37.35H295.56V205.2h-2v14.62H281V156.48h-2v63.34H257.81v2.43H272v5.68h-7.31v22.74H221.27v37.44h-25v6.42H162.2v7.21h3.21v5.08H162.2V314h3.21v5.08H162.2v7.22h3.21v5.08H162.2v7.21h3.21v5.09H162.2v7.21h3.21V356H162.2v7.22h3.21v5.07H162.2v7.22h3.21v5.88H155.35V304.25h-4V284.72H144.7V263.43h-7v-1.3h-6v1.3h-3v-1.3h-6v1.3h-3v-1.3h-6v1.3h-3v-1.3h-6v1.3H51.94V275H48v9.76H39.07v19.53H29.76v54.6H29.1V366H18v15.4H0v87.37H1400V381.39Zm-768-177.14-1.48-2.06a3.84,3.84,0,0,0,2.15-.49A5.85,5.85,0,0,0,623.15,204.25Zm616.5,131.63v29.17H1238v10.7h-1.29v-3.12h-2.88v-3.11H1231v-3.11h-.76V335.88Z" style="fill:#231f20;fill-rule:evenodd"/></g></g></svg>